# xmcd
#
# Track frame offsets: 
#        151
#        21083
#        39683
#        58188
#        76984
#        94756
#        110548
#        132130
#        151847
#        169588
#        183972
#        200803
#        224457
#        239633
#        273066
#        298947
#        312196
#
# Disc length: 4439 seconds
#
# Revision: 0
# Processed by: cddbd v1.5.2PL0 Copyright (c) Steve Scherf et al.
# Submitted via: ExactAudioCopy v1.3
#
DISCID=f4115511
DTITLE=阎维文 - 母亲
DYEAR=2004
DGENRE=Pop
TTITLE0=母亲
TTITLE1=父亲对我说
TTITLE2=好一片艳阳天
TTITLE3=同志
TTITLE4=东方龙抬头
TTITLE5=大英雄
TTITLE6=有那么一个地方
TTITLE7=中国警察
TTITLE8=心愿
TTITLE9=祝福健康
TTITLE10=大杨树
TTITLE11=你当兵的儿子在西部
TTITLE12=八十情怀
TTITLE13=当兵的男儿走四方
TTITLE14=迎接远方的朋友
TTITLE15=中国结
TTITLE16=母亲（伴奏）
EXTD=
EXTT0=
EXTT1=
EXTT2=
EXTT3=
EXTT4=
EXTT5=
EXTT6=
EXTT7=
EXTT8=
EXTT9=
EXTT10=
EXTT11=
EXTT12=
EXTT13=
EXTT14=
EXTT15=
EXTT16=
PLAYORDER=
